<svg width="84" height="59" viewBox="0 0 84 59" fill="none" xmlns="http://www.w3.org/2000/svg">
<path opacity="0.25" d="M25.08 58.12C20.68 58.12 16.9333 57.3867 13.84 55.92C10.7733 54.4267 8.29333 52.3733 6.4 49.76C4.50667 47.12 3.12 44.0667 2.24 40.6C1.36 37.1333 0.92 33.4267 0.92 29.48C0.92 23.88 1.73333 18.92 3.36 14.6C5.01333 10.2533 7.58667 6.85333 11.08 4.4C14.5733 1.92 19.12 0.679996 24.72 0.679996C28.9867 0.679996 32.6267 1.38666 35.64 2.8C38.68 4.21333 41.1733 6.21333 43.12 8.8C45.0667 11.36 46.4933 14.4 47.4 17.92C48.3333 21.4133 48.8 25.24 48.8 29.4C48.8 35.1333 47.9467 40.16 46.24 44.48C44.56 48.7733 41.96 52.12 38.44 54.52C34.9467 56.92 30.4933 58.12 25.08 58.12ZM24.92 45.44C26.8933 45.44 28.4667 44.76 29.64 43.4C30.8133 42.0133 31.6533 40.12 32.16 37.72C32.6667 35.2933 32.92 32.52 32.92 29.4C32.92 26.1733 32.64 23.36 32.08 20.96C31.5467 18.56 30.68 16.7067 29.48 15.4C28.3067 14.0667 26.7867 13.4 24.92 13.4C23 13.4 21.44 14.0667 20.24 15.4C19.0667 16.7333 18.2 18.6 17.64 21C17.1067 23.4 16.84 26.2 16.84 29.4C16.84 32.5467 17.0933 35.3333 17.6 37.76C18.1333 40.16 18.9867 42.04 20.16 43.4C21.3333 44.76 22.92 45.44 24.92 45.44ZM56.51 23.8L52.99 12C56.8033 10.24 60.6167 8.49333 64.43 6.76C68.27 5 72.0967 3.24 75.91 1.48L75.31 15.08C72.19 16.52 69.0567 17.9733 65.91 19.44C62.79 20.88 59.6567 22.3333 56.51 23.8ZM67.87 57C67.87 54.1733 67.87 51.44 67.87 48.8C67.87 46.16 67.87 43.1733 67.87 39.84V24.32C67.87 21.6267 67.87 18.9467 67.87 16.28C67.87 13.5867 67.87 10.8933 67.87 8.2L75.91 1.48L83.35 1.88C83.35 5.10666 83.35 8.32 83.35 11.52C83.35 14.6933 83.35 17.8933 83.35 21.12V39.84C83.35 43.1733 83.35 46.16 83.35 48.8C83.35 51.44 83.35 54.1733 83.35 57H67.87Z" fill="white"/>
</svg>
