<svg width="95" height="59" viewBox="0 0 95 59" fill="none" xmlns="http://www.w3.org/2000/svg">
<path opacity="0.25" d="M25.08 58.12C20.68 58.12 16.9333 57.3867 13.84 55.92C10.7733 54.4267 8.29333 52.3733 6.4 49.76C4.50667 47.12 3.12 44.0667 2.24 40.6C1.36 37.1333 0.92 33.4267 0.92 29.48C0.92 23.88 1.73333 18.92 3.36 14.6C5.01333 10.2533 7.58667 6.85333 11.08 4.4C14.5733 1.92 19.12 0.679996 24.72 0.679996C28.9867 0.679996 32.6267 1.38666 35.64 2.8C38.68 4.21333 41.1733 6.21333 43.12 8.8C45.0667 11.36 46.4933 14.4 47.4 17.92C48.3333 21.4133 48.8 25.24 48.8 29.4C48.8 35.1333 47.9467 40.16 46.24 44.48C44.56 48.7733 41.96 52.12 38.44 54.52C34.9467 56.92 30.4933 58.12 25.08 58.12ZM24.92 45.44C26.8933 45.44 28.4667 44.76 29.64 43.4C30.8133 42.0133 31.6533 40.12 32.16 37.72C32.6667 35.2933 32.92 32.52 32.92 29.4C32.92 26.1733 32.64 23.36 32.08 20.96C31.5467 18.56 30.68 16.7067 29.48 15.4C28.3067 14.0667 26.7867 13.4 24.92 13.4C23 13.4 21.44 14.0667 20.24 15.4C19.0667 16.7333 18.2 18.6 17.64 21C17.1067 23.4 16.84 26.2 16.84 29.4C16.84 32.5467 17.0933 35.3333 17.6 37.76C18.1333 40.16 18.9867 42.04 20.16 43.4C21.3333 44.76 22.92 45.44 24.92 45.44ZM54.325 57V46.76C55.685 45.6133 57.045 44.48 58.405 43.36C59.765 42.24 61.125 41.12 62.485 40C65.6583 37.36 68.3783 34.92 70.645 32.68C72.9383 30.4133 74.6983 28.2267 75.925 26.12C77.1517 24.0133 77.765 21.8933 77.765 19.76C77.765 17.7067 77.165 16.16 75.965 15.12C74.7917 14.0533 73.0183 13.52 70.645 13.52C69.3917 13.52 68.1117 13.68 66.805 14C65.4983 14.32 64.1917 14.7467 62.885 15.28C61.5783 15.8133 60.285 16.44 59.005 17.16C57.725 17.8533 56.485 18.6133 55.285 19.44L54.005 4.88C55.2583 4.32 56.645 3.8 58.165 3.32C59.685 2.81333 61.2983 2.36 63.005 1.96C64.7117 1.56 66.485 1.25333 68.325 1.04C70.165 0.799996 72.0317 0.679996 73.925 0.679996C78.1917 0.679996 81.7917 1.36 84.725 2.72C87.685 4.05333 89.9117 6 91.405 8.56C92.925 11.0933 93.685 14.1333 93.685 17.68C93.685 20.4 93.165 23.1067 92.125 25.8C91.085 28.4667 89.4583 31.0933 87.245 33.68C85.0583 36.2667 82.245 38.8267 78.805 41.36L71.485 46.84L69.685 43.88H78.965C81.4983 43.88 84.0317 43.88 86.565 43.88C89.0983 43.88 91.6183 43.88 94.125 43.88V57H54.325Z" fill="white"/>
</svg>
