<svg width="96" height="59" viewBox="0 0 96 59" fill="none" xmlns="http://www.w3.org/2000/svg">
<path opacity="0.25" d="M25.08 58.12C20.68 58.12 16.9333 57.3867 13.84 55.92C10.7733 54.4267 8.29333 52.3733 6.4 49.76C4.50667 47.12 3.12 44.0667 2.24 40.6C1.36 37.1333 0.92 33.4267 0.92 29.48C0.92 23.88 1.73333 18.92 3.36 14.6C5.01333 10.2533 7.58667 6.85333 11.08 4.4C14.5733 1.92 19.12 0.679996 24.72 0.679996C28.9867 0.679996 32.6267 1.38666 35.64 2.8C38.68 4.21333 41.1733 6.21333 43.12 8.8C45.0667 11.36 46.4933 14.4 47.4 17.92C48.3333 21.4133 48.8 25.24 48.8 29.4C48.8 35.1333 47.9467 40.16 46.24 44.48C44.56 48.7733 41.96 52.12 38.44 54.52C34.9467 56.92 30.4933 58.12 25.08 58.12ZM24.92 45.44C26.8933 45.44 28.4667 44.76 29.64 43.4C30.8133 42.0133 31.6533 40.12 32.16 37.72C32.6667 35.2933 32.92 32.52 32.92 29.4C32.92 26.1733 32.64 23.36 32.08 20.96C31.5467 18.56 30.68 16.7067 29.48 15.4C28.3067 14.0667 26.7867 13.4 24.92 13.4C23 13.4 21.44 14.0667 20.24 15.4C19.0667 16.7333 18.2 18.6 17.64 21C17.1067 23.4 16.84 26.2 16.84 29.4C16.84 32.5467 17.0933 35.3333 17.6 37.76C18.1333 40.16 18.9867 42.04 20.16 43.4C21.3333 44.76 22.92 45.44 24.92 45.44ZM73.645 58.16C71.6183 58.16 69.645 58.0533 67.725 57.84C65.8317 57.6267 64.0317 57.3333 62.325 56.96C60.6183 56.5867 59.045 56.16 57.605 55.68C56.1917 55.2 54.925 54.6933 53.805 54.16L54.885 40.28C56.2983 41 57.7383 41.6667 59.205 42.28C60.6717 42.8933 62.125 43.4267 63.565 43.88C65.0317 44.3333 66.4583 44.6933 67.845 44.96C69.2583 45.2 70.6183 45.32 71.925 45.32C74.7783 45.32 76.7917 44.84 77.965 43.88C79.1383 42.8933 79.725 41.6133 79.725 40.04C79.725 38.2267 79.0183 36.88 77.605 36C76.1917 35.0933 74.085 34.64 71.285 34.64C69.9783 34.64 68.685 34.64 67.405 34.64C66.1517 34.64 64.885 34.64 63.605 34.64V24.12C64.725 24.12 65.8317 24.12 66.925 24.12C68.045 24.12 69.165 24.12 70.285 24.12C72.1783 24.12 73.7117 23.9067 74.885 23.48C76.085 23.0533 76.965 22.4533 77.525 21.68C78.085 20.9067 78.365 19.9467 78.365 18.8C78.365 17.04 77.725 15.7333 76.445 14.88C75.1917 14 73.4583 13.56 71.245 13.56C70.0183 13.56 68.7517 13.6933 67.445 13.96C66.1383 14.2267 64.8317 14.6 63.525 15.08C62.2183 15.5333 60.925 16.08 59.645 16.72C58.365 17.3333 57.125 18 55.925 18.72L54.645 4.68C55.8717 4.17333 57.2183 3.68 58.685 3.2C60.1517 2.69333 61.725 2.25333 63.405 1.88C65.085 1.50666 66.8183 1.21333 68.605 0.999996C70.3917 0.759998 72.205 0.639998 74.045 0.639998C78.4183 0.639998 82.1117 1.25333 85.125 2.48C88.1383 3.68 90.4183 5.37333 91.965 7.56C93.5117 9.72 94.285 12.28 94.285 15.24C94.285 17.5333 93.845 19.4933 92.965 21.12C92.085 22.7467 90.8983 24.0533 89.405 25.04C87.9117 26 86.2317 26.6667 84.365 27.04V28.16C85.805 28.4267 87.1917 28.8933 88.525 29.56C89.8583 30.2 91.0583 31.0667 92.125 32.16C93.1917 33.2267 94.0317 34.5467 94.645 36.12C95.285 37.6933 95.605 39.5333 95.605 41.64C95.605 44.8667 94.8183 47.72 93.245 50.2C91.6983 52.68 89.2983 54.6267 86.045 56.04C82.8183 57.4533 78.685 58.16 73.645 58.16Z" fill="white"/>
</svg>
